<svg id="图层_1" data-name="图层 1" xmlns="http://www.w3.org/2000/svg" viewBox="0 0 87.96 9.09"><path d="M40.57,5.06l.78.8a1.43,1.43,0,0,1-.39.23,1,1,0,0,1-.4.08.59.59,0,0,1-.39-.12A.4.4,0,0,1,40,5.72a.61.61,0,0,1,.14-.37A1.11,1.11,0,0,1,40.57,5.06Z" style="fill:#231815"/><path d="M41.44,2.78a.42.42,0,0,1,.15.34.47.47,0,0,1-.14.35,1.16,1.16,0,0,1-.45.26,1.59,1.59,0,0,1-.35-.31.56.56,0,0,1-.1-.33.38.38,0,0,1,.13-.32.53.53,0,0,1,.37-.12A.56.56,0,0,1,41.44,2.78Z" style="fill:#231815"/><path d="M41.48,0A4.55,4.55,0,1,0,46,4.55,4.55,4.55,0,0,0,41.48,0Zm1.18,7.23-.45-.47a2.76,2.76,0,0,1-.86.46,3,3,0,0,1-1,.16A1.94,1.94,0,0,1,39,7a1.49,1.49,0,0,1-.48-1.18,1.64,1.64,0,0,1,.27-.95,2.37,2.37,0,0,1,.88-.69,1.48,1.48,0,0,1-.37-.48,1.13,1.13,0,0,1-.13-.54,1.24,1.24,0,0,1,.48-1A2.2,2.2,0,0,1,41,1.7a2.07,2.07,0,0,1,1.35.41,1.37,1.37,0,0,1,.49,1.11,1.35,1.35,0,0,1-.22.78,1.85,1.85,0,0,1-.67.58l.46.48a1.8,1.8,0,0,0,.19-.2,1.85,1.85,0,0,0,.19-.27H44.2a4.07,4.07,0,0,1-.4.7,4,4,0,0,1-.54.65L44.5,7.23Z" style="fill:#231815"/><path d="M6,5.51H8.59a3.65,3.65,0,0,1-1.2,2.64,4.31,4.31,0,0,1-2.94.94A4.35,4.35,0,0,1,1.19,7.88,4.57,4.57,0,0,1,0,4.55,4.56,4.56,0,0,1,1.18,1.22,4.25,4.25,0,0,1,4.39,0a4.41,4.41,0,0,1,3,.91,3.52,3.52,0,0,1,1.2,2.58H5.89a1.48,1.48,0,0,0-.43-1,1.51,1.51,0,0,0-1-.33,1.39,1.39,0,0,0-1.22.59,3.24,3.24,0,0,0-.41,1.8,3,3,0,0,0,.44,1.78,1.47,1.47,0,0,0,1.27.6,1.38,1.38,0,0,0,1-.37A1.59,1.59,0,0,0,6,5.51Z" style="fill:#231815"/><path d="M9.39,4.55a4.53,4.53,0,0,1,1.2-3.33A4.42,4.42,0,0,1,13.88,0a4.39,4.39,0,0,1,3.27,1.22,4.53,4.53,0,0,1,1.2,3.33,4.52,4.52,0,0,1-1.2,3.32,4.35,4.35,0,0,1-3.27,1.22,4.38,4.38,0,0,1-3.29-1.22A4.52,4.52,0,0,1,9.39,4.55Zm2.79,0a3.19,3.19,0,0,0,.41,1.8,1.48,1.48,0,0,0,1.29.57,1.46,1.46,0,0,0,1.27-.57,3.16,3.16,0,0,0,.4-1.8,3.17,3.17,0,0,0-.4-1.81,1.46,1.46,0,0,0-1.27-.57,1.48,1.48,0,0,0-1.29.57A3.21,3.21,0,0,0,12.18,4.55Z" style="fill:#231815"/><path d="M19.62,8.85V.22h3.55A10,10,0,0,1,25,.36,3.31,3.31,0,0,1,26.19.8a2.69,2.69,0,0,1,.89,1,3.22,3.22,0,0,1,.29,1.41,2.83,2.83,0,0,1-.86,2.22,3.52,3.52,0,0,1-2.46.77H22.39V8.85ZM22.39,4.1h.89a2.34,2.34,0,0,0,1.16-.19.78.78,0,0,0,.29-.69.77.77,0,0,0-.28-.69,2.34,2.34,0,0,0-1.17-.19h-.89Z" style="fill:#231815"/><path d="M30.63,8.85V5.66L27.46.22h3.07L32,3.17,33.52.22h3L33.4,5.66V8.85Z" style="fill:#231815"/><path d="M47.35,8.85V.22H50.9a10.1,10.1,0,0,1,1.87.14A3.25,3.25,0,0,1,53.92.8a2.6,2.6,0,0,1,.89,1,3.22,3.22,0,0,1,.29,1.41,2.82,2.82,0,0,1-.85,2.22,3.55,3.55,0,0,1-2.47.77H50.12V8.85ZM50.12,4.1H51a2.32,2.32,0,0,0,1.16-.19.76.76,0,0,0,.29-.69.77.77,0,0,0-.28-.69A2.29,2.29,0,0,0,51,2.34h-.89Z" style="fill:#231815"/><path d="M54.7,8.85l3-8.63h2.81l3,8.63H60.83L60.5,7.71H57.76l-.34,1.14ZM58.26,5.9H60l-.86-3Z" style="fill:#231815"/><path d="M64,6.17h2.7a1.1,1.1,0,0,0,.4.67,2,2,0,0,0,1.64,0A.53.53,0,0,0,69,6.42c0-.32-.39-.57-1.17-.76l-.36-.09c-.63-.17-1.14-.32-1.52-.45a4,4,0,0,1-.82-.38,2.42,2.42,0,0,1-.75-.85,2.62,2.62,0,0,1-.25-1.14,2.41,2.41,0,0,1,1-2,5.23,5.23,0,0,1,5.28,0,2.67,2.67,0,0,1,1.08,2H68.81a.83.83,0,0,0-.34-.57A1.32,1.32,0,0,0,67.69,2,1.19,1.19,0,0,0,67,2.1a.51.51,0,0,0-.22.44q0,.44,1.14.72l.15,0,.5.12a7.85,7.85,0,0,1,2,.69,2.65,2.65,0,0,1,.84.87,2.47,2.47,0,0,1,.26,1.15,2.6,2.6,0,0,1-1,2.2,4.62,4.62,0,0,1-2.86.76,4.39,4.39,0,0,1-2.72-.76A2.91,2.91,0,0,1,64,6.17Z" style="fill:#231815"/><path d="M74.74,8.85V2.5H72.25V.22H80V2.5H77.51V8.85Z" style="fill:#231815"/><path d="M80.89,8.85V.22h6.9V2.29H83.66V3.44h3.49v2H83.66V6.76H88V8.85Z" style="fill:#231815"/></svg>